<?xml version="1.0" encoding="UTF-8"?>
<svg id="Layer_1" xmlns="http://www.w3.org/2000/svg" version="1.1" xmlns:xlink="http://www.w3.org/1999/xlink" viewBox="0 0 800 800">
  <!-- Generator: Adobe Illustrator 29.3.1, SVG Export Plug-In . SVG Version: 2.1.0 Build 151)  -->
  <defs>
    <style>
      .st0 {
        fill: url(#linear-gradient1);
      }

      .st1 {
        fill: url(#radial-gradient);
      }

      .st2 {
        fill: url(#radial-gradient5);
      }

      .st3 {
        fill: url(#radial-gradient1);
      }

      .st4 {
        fill: url(#radial-gradient7);
      }

      .st5 {
        fill: url(#radial-gradient8);
      }

      .st6 {
        fill: url(#radial-gradient6);
      }

      .st7 {
        fill: url(#radial-gradient2);
      }

      .st8 {
        fill: url(#radial-gradient4);
      }

      .st9 {
        fill: url(#radial-gradient3);
      }

      .st10 {
        fill: url(#radial-gradient9);
      }

      .st11 {
        fill: url(#linear-gradient);
      }
    </style>
    <linearGradient id="linear-gradient" x1="382.6" y1="418.5" x2="381.3" y2="417.3" gradientTransform="translate(-182963.4 207709.5) scale(480 -496)" gradientUnits="userSpaceOnUse">
      <stop offset="0" stop-color="#fff66a"/>
      <stop offset=".4" stop-color="#ffa429"/>
      <stop offset=".5" stop-color="#ff515f"/>
      <stop offset=".7" stop-color="#e82e94"/>
    </linearGradient>
    <radialGradient id="radial-gradient" cx="382.5" cy="418.9" fx="382.5" fy="418.9" r="2.1" gradientTransform="translate(-146205.1 163753.5) scale(384 -390.5)" gradientUnits="userSpaceOnUse">
      <stop offset=".1" stop-color="#ffc86a"/>
      <stop offset=".3" stop-color="#ffa429"/>
      <stop offset=".5" stop-color="#ff5267"/>
      <stop offset=".8" stop-color="#ee2186"/>
      <stop offset=".9" stop-color="#e9198d"/>
    </radialGradient>
    <radialGradient id="radial-gradient1" cx="381.9" cy="418.2" fx="381.9" fy="418.2" r="2.1" gradientTransform="translate(-149915.5 163703.2) scale(393.6 -390.5)" gradientUnits="userSpaceOnUse">
      <stop offset=".3" stop-color="#a0202b"/>
      <stop offset=".3" stop-color="#bb2e3b" stop-opacity=".7"/>
      <stop offset=".4" stop-color="#e14254" stop-opacity=".3"/>
      <stop offset=".5" stop-color="#f74d61" stop-opacity="0"/>
      <stop offset=".5" stop-color="#ff5267" stop-opacity="0"/>
    </radialGradient>
    <radialGradient id="radial-gradient2" cx="380.7" cy="420.1" fx="380.7" fy="420.1" r="2.3" gradientTransform="translate(-43390 82160.4) scale(115.2 -195.6)" gradientUnits="userSpaceOnUse">
      <stop offset=".1" stop-color="#fff66a"/>
      <stop offset=".5" stop-color="#ffa429"/>
    </radialGradient>
    <radialGradient id="radial-gradient3" cx="380.9" cy="417.5" fx="380.9" fy="417.5" r="1.6" gradientTransform="translate(-81020.1 98318.7) scale(213.5 -234)" gradientUnits="userSpaceOnUse">
      <stop offset=".3" stop-color="#549dea"/>
      <stop offset=".7" stop-color="#a274ff"/>
      <stop offset="1" stop-color="#ca53ea"/>
    </radialGradient>
    <radialGradient id="radial-gradient4" cx="381.3" cy="418.8" fx="381.3" fy="418.8" r="1" gradientTransform="translate(-72865 98318.7) scale(192.1 -234)" gradientUnits="userSpaceOnUse">
      <stop offset=".2" stop-color="#a274ff" stop-opacity="0"/>
      <stop offset="1" stop-color="#7a1095" stop-opacity=".6"/>
    </radialGradient>
    <radialGradient id="radial-gradient5" cx="379.9" cy="425.1" fx="379.9" fy="425.1" r="4.7" gradientTransform="translate(-21856.9 25027.6) scale(58.5 -58.7)" gradientUnits="userSpaceOnUse">
      <stop offset="0" stop-color="#ffe641"/>
      <stop offset=".8" stop-color="#ce6b44"/>
    </radialGradient>
    <radialGradient id="radial-gradient6" cx="382.5" cy="419.5" fx="382.5" fy="419.5" r="2.9" gradientTransform="translate(-171560 158415.9) scale(450.2 -377.9)" gradientUnits="userSpaceOnUse">
      <stop offset=".1" stop-color="#fff66a"/>
      <stop offset=".5" stop-color="#ffa429"/>
      <stop offset=".7" stop-color="#ff515f"/>
      <stop offset=".9" stop-color="#e82e94"/>
    </radialGradient>
    <radialGradient id="radial-gradient7" cx="379.3" cy="417.2" fx="379.3" fy="417.2" r="5.6" gradientTransform="translate(-69434.7 -51043.5) rotate(84) scale(152.7 -153.9) skewX(0)" gradientUnits="userSpaceOnUse">
      <stop offset="0" stop-color="#fff66a"/>
      <stop offset=".3" stop-color="#ffa429"/>
      <stop offset=".6" stop-color="#ff515f"/>
      <stop offset=".7" stop-color="#e82e94"/>
    </radialGradient>
    <radialGradient id="radial-gradient8" cx="380.9" cy="420.1" fx="380.9" fy="420.1" r="3.8" gradientTransform="translate(-73957.1 80698) scale(195.1 -191.7)" gradientUnits="userSpaceOnUse">
      <stop offset=".1" stop-color="#fff66a"/>
      <stop offset=".5" stop-color="#ffa429"/>
      <stop offset=".7" stop-color="#ff515f"/>
      <stop offset=".9" stop-color="#e82e94"/>
    </radialGradient>
    <radialGradient id="radial-gradient9" cx="382.6" cy="420.4" fx="382.6" fy="420.4" r="5.1" gradientTransform="translate(-67761.6 67363.5) scale(178.6 -159.8)" gradientUnits="userSpaceOnUse">
      <stop offset="0" stop-color="#fff66a"/>
      <stop offset=".6" stop-color="#ffa429"/>
    </radialGradient>
    <linearGradient id="linear-gradient1" x1="382.5" y1="418.5" x2="381.5" y2="417.4" gradientTransform="translate(-182961.9 207709.5) scale(480 -496)" gradientUnits="userSpaceOnUse">
      <stop offset=".2" stop-color="#fff66a" stop-opacity=".8"/>
      <stop offset=".6" stop-color="#fff66a" stop-opacity="0"/>
    </linearGradient>
  </defs>
  <path class="st11" d="M759.2,268.3c-16.8-40.5-51-84.3-77.8-98.1,21.8,42.8,34.4,85.6,39.3,117.6,0,0,0,.2,0,.6-43.8-109.2-118.2-153.3-178.8-249.2-3.1-4.9-6.1-9.7-9.1-14.8-1.5-2.6-2.9-5.3-4.3-8-2.5-4.9-4.5-10-5.8-15.3,0-.5-.4-1-.9-1-.2,0-.5,0-.7,0,0,0-.1,0-.2.1,0,0-.2.1-.3.2,0,0,.1-.2.2-.2-97.4,57-130.4,162.5-133.4,215.3-38.9,2.7-76.1,17-106.7,41.1-3.2-2.7-6.6-5.2-10-7.6-8.8-30.9-9.2-63.6-1.1-94.7-39.8,18.1-70.8,46.8-93.3,72.1h-.2c-15.4-19.5-14.3-83.7-13.4-97.1-.2-.8-11.5,5.9-12.9,6.9-13.6,9.7-26.2,20.5-37.9,32.5-13.3,13.4-25.4,28-36.2,43.4,0,0,0,0,0,0,0,0,0,0,0,0-24.9,35.3-42.6,75.2-52,117.4-.2.8-.3,1.7-.5,2.6-.7,3.4-3.4,20.5-3.8,24.2,0,.3,0,.6,0,.8-3.4,17.6-5.5,35.5-6.3,53.5,0,.7,0,1.3,0,2,0,214.1,173.6,387.6,387.6,387.6s350.9-139.2,382.1-322c.7-5,1.2-9.9,1.8-15,7.7-66.5-.9-136.3-25.1-194.8ZM312.4,571.7c1.8.9,3.5,1.8,5.4,2.6,0,0,.2.1.3.2-1.9-.9-3.8-1.8-5.6-2.8ZM720.8,288.6v-.4c0,.1,0,.3,0,.4h0Z"/>
  <path class="st1" d="M759.2,268.3c-16.8-40.5-51-84.3-77.8-98.1,21.8,42.8,34.4,85.6,39.3,117.6,0,0,0,0,0,.4,0,.1,0,.3,0,.4,36.6,99.1,16.6,200-12.1,261.6-44.4,95.3-152,193-320.3,188.3-181.9-5.2-342.1-140.1-372-316.8-5.5-27.9,0-42,2.7-64.7-3.3,17.4-4.6,22.5-6.3,53.5,0,.7,0,1.3,0,2,0,214,173.6,387.6,387.6,387.6s350.9-139.2,382.1-322c.7-5,1.2-9.9,1.8-15,7.7-66.5-.9-136.3-25.1-194.8Z"/>
  <path class="st3" d="M759.2,268.3c-16.8-40.5-51-84.3-77.8-98.1,21.8,42.8,34.4,85.6,39.3,117.6,0,0,0,0,0,.4,0,.1,0,.3,0,.4,36.6,99.1,16.6,200-12.1,261.6-44.4,95.3-152,193-320.3,188.3-181.9-5.2-342.1-140.1-372-316.8-5.5-27.9,0-42,2.7-64.7-3.3,17.4-4.6,22.5-6.3,53.5,0,.7,0,1.3,0,2,0,214,173.6,387.6,387.6,387.6s350.9-139.2,382.1-322c.7-5,1.2-9.9,1.8-15,7.7-66.5-.9-136.3-25.1-194.8Z"/>
  <path class="st7" d="M570.8,313.9c.8.6,1.6,1.2,2.4,1.8-9.7-17.3-21.8-33.1-36-47C416.8,148.2,505.7,7.5,520.7.3c0,0,.1-.2.2-.2-97.4,57-130.4,162.5-133.4,215.3,4.5-.3,9-.7,13.6-.7,72.7,0,136,40,169.8,99.2h0Z"/>
  <path class="st9" d="M401.2,337.9c-.6,9.6-34.7,42.9-46.6,42.9-110.2,0-128.1,66.7-128.1,66.7,4.9,56.1,44,102.4,91.3,126.8,2.2,1.1,4.3,2.1,6.5,3.1,3.7,1.7,7.5,3.2,11.4,4.7,16.2,5.7,33.2,9,50.4,9.7,193.2,9.1,230.6-231,91.2-300.7,35.7-6.2,72.8,8.2,93.5,22.7-33.9-59.2-97.2-99.2-169.8-99.2s-9.1.4-13.6.7c-38.9,2.7-76.1,17-106.7,41.1,5.9,5,12.6,11.7,26.6,25.5,26.3,25.9,93.8,52.8,93.9,55.9h0Z"/>
  <path class="st8" d="M401.2,337.9c-.6,9.6-34.7,42.9-46.6,42.9-110.2,0-128.1,66.7-128.1,66.7,4.9,56.1,44,102.4,91.3,126.8,2.2,1.1,4.3,2.1,6.5,3.1,3.7,1.7,7.5,3.2,11.4,4.7,16.2,5.7,33.2,9,50.4,9.7,193.2,9.1,230.6-231,91.2-300.7,35.7-6.2,72.8,8.2,93.5,22.7-33.9-59.2-97.2-99.2-169.8-99.2s-9.1.4-13.6.7c-38.9,2.7-76.1,17-106.7,41.1,5.9,5,12.6,11.7,26.6,25.5,26.3,25.9,93.8,52.8,93.9,55.9h0Z"/>
  <path class="st2" d="M262.6,243.6c2.7,1.7,5.4,3.5,8,5.3-8.8-30.9-9.2-63.6-1.1-94.7-39.8,18.1-70.8,46.8-93.3,72.1,1.9,0,58.1-1.1,86.4,17.3h0Z"/>
  <path class="st6" d="M16.5,421.6c29.9,176.7,190.1,311.7,372,316.8,168.3,4.8,275.9-92.9,320.3-188.3,28.7-61.6,48.6-162.4,12.1-261.6h0s0-.4,0-.4c0-.3,0-.5,0-.4,0,0,0,.2,0,.6,13.7,89.8-31.9,176.7-103.3,235.6l-.2.5c-139.1,113.3-272.2,68.3-299.2,49.9-1.9-.9-3.8-1.8-5.6-2.8-81.1-38.8-114.6-112.6-107.4-176-68.5,0-91.8-57.8-91.8-57.8,0,0,61.5-43.8,142.5-5.7,75,35.3,145.5,5.7,145.5,5.7-.1-3.1-67.6-30-93.9-55.9-14.1-13.8-20.7-20.5-26.6-25.5-3.2-2.7-6.6-5.2-10-7.6-2.7-1.8-5.3-3.6-8-5.3-28.3-18.4-84.5-17.4-86.4-17.3h-.2c-15.4-19.5-14.3-83.7-13.4-97.1-.2-.8-11.5,5.9-12.9,6.9-13.6,9.7-26.2,20.5-37.9,32.5-13.3,13.4-25.4,28-36.2,43.4,0,0,0,0,0,0,0,0,0,0,0,0-24.9,35.3-42.6,75.2-52,117.4-.2.8-14,61-7.2,92.3h0Z"/>
  <path class="st4" d="M537.3,268.7c14.1,13.9,26.3,29.7,36,47,2.1,1.6,4.1,3.2,5.8,4.8,87.9,81,41.8,195.5,38.4,203.6,71.4-58.8,117.1-145.8,103.3-235.6-43.8-109.2-118.2-153.3-178.8-249.2-3.1-4.9-6.1-9.7-9.1-14.8-1.5-2.6-2.9-5.3-4.3-8-2.5-4.9-4.5-10-5.8-15.3,0-.5-.4-1-.9-1-.2,0-.5,0-.7,0,0,0-.1,0-.2.1,0,0-.2.1-.3.2-15,7.1-103.9,147.9,16.6,268.4h0Z"/>
  <path class="st5" d="M579.1,320.4c-1.7-1.6-3.7-3.2-5.8-4.8-.8-.6-1.6-1.2-2.4-1.8-20.7-14.5-57.8-28.9-93.5-22.7,139.4,69.7,102,309.7-91.2,300.7-17.2-.7-34.2-4-50.4-9.7-3.8-1.4-7.6-3-11.4-4.7-2.2-1-4.4-2-6.5-3.1,0,0,.2.1.3.2,27,18.4,160.1,63.3,299.2-49.9l.2-.5c3.4-8.2,49.5-122.7-38.4-203.6h0Z"/>
  <path class="st10" d="M226.5,447.5s17.9-66.7,128.1-66.7,46-33.3,46.6-42.9-70.5,29.6-145.5-5.7c-81-38.1-142.5,5.7-142.5,5.7,0,0,23.4,57.8,91.8,57.8-7.2,63.4,26.3,137.3,107.4,176,1.8.9,3.5,1.8,5.4,2.6-47.3-24.5-86.4-70.7-91.3-126.8Z"/>
  <path class="st0" d="M759.2,268.3c-16.8-40.5-51-84.3-77.8-98.1,21.8,42.8,34.4,85.6,39.3,117.6,0,0,0,.2,0,.6-43.8-109.2-118.2-153.3-178.8-249.2-3.1-4.9-6.1-9.7-9.1-14.8-1.5-2.6-2.9-5.3-4.3-8-2.5-4.9-4.5-10-5.8-15.3,0-.5-.4-1-.9-1-.2,0-.5,0-.7,0,0,0-.1,0-.2.1,0,0-.2.1-.3.2,0,0,.1-.2.2-.2-97.4,57-130.4,162.5-133.4,215.3,4.5-.3,9-.7,13.6-.7,72.7,0,136,40,169.8,99.2-20.7-14.5-57.8-28.9-93.5-22.7,139.4,69.7,102,309.7-91.2,300.7-17.2-.7-34.2-4-50.4-9.7-3.8-1.4-7.6-3-11.4-4.7-2.2-1-4.4-2-6.5-3.1,0,0,.2.1.3.2-1.9-.9-3.8-1.8-5.6-2.8,1.8.9,3.5,1.8,5.4,2.6-47.3-24.5-86.4-70.7-91.3-126.8,0,0,17.9-66.7,128.1-66.7s46-33.3,46.6-42.9c-.1-3.1-67.6-30-93.9-55.9-14.1-13.8-20.7-20.5-26.6-25.5-3.2-2.7-6.6-5.2-10-7.6-8.8-30.9-9.2-63.6-1.1-94.7-39.8,18.1-70.8,46.8-93.3,72.1h-.2c-15.4-19.5-14.3-83.7-13.4-97.1-.2-.8-11.5,5.9-12.9,6.9-13.6,9.7-26.2,20.5-37.9,32.5-13.2,13.4-25.4,28-36.2,43.4,0,0,0,0,0,0,0,0,0,0,0,0-24.9,35.3-42.6,75.2-52,117.4-.2.8-.3,1.7-.5,2.6-.7,3.4-4,20.7-4.5,24.4,0,.3,0-.3,0,0-3,17.9-4.9,36-5.7,54.1,0,.7,0,1.3,0,2,0,214,173.5,387.6,387.6,387.6s350.9-139.2,382.1-322c.7-5,1.2-9.9,1.8-15,7.7-66.5-.9-136.3-25.1-194.8ZM720.8,288.2c0,.1,0,.3,0,.4h0s0-.4,0-.4Z"/>
</svg>