<?xml version="1.0" encoding="UTF-8"?>
<svg id="Layer_1" xmlns="http://www.w3.org/2000/svg" version="1.1" viewBox="0 0 800 800">
  <!-- Generator: Adobe Illustrator 29.3.1, SVG Export Plug-In . SVG Version: 2.1.0 Build 151)  -->
  <defs>
    <style>
      .st0 {
        fill: #f9db46;
      }

      .st1 {
        fill: #e04d2b;
      }

      .st2 {
        fill: #26abd9;
      }

      .st3 {
        fill: #71d375;
      }
    </style>
  </defs>
  <path class="st1" d="M376,382.2L40.3,733.9c14.1,48.6,64.8,76.5,113.4,62.5,6.9-2,13.6-4.8,19.9-8.4l377.7-215.1-175.3-190.6Z"/>
  <path class="st0" d="M715.4,322.4l-163.3-93.6-183.9,161.3,184.6,182.1,162.1-92.6c43.4-22.6,60.3-76,37.7-119.4,0-.1-.1-.3-.2-.4-8.5-16-21.5-29-37.5-37.5h.5Z"/>
  <path class="st2" d="M40.3,66.5c-2,7.5-3,15.2-3,23v621.3c0,7.8,1,15.5,3,23l347.2-342.7L40.3,66.5Z"/>
  <path class="st3" d="M378.5,400.2l173.6-171.3L174.9,12.8C160.7,4.5,144.6,0,128.1,0,87.3,0,51.4,27,40.3,66.3l338.2,333.9Z"/>
</svg>