<?xml version="1.0" encoding="UTF-8"?>
<svg id="Capa_1" xmlns="http://www.w3.org/2000/svg" version="1.1" xmlns:xlink="http://www.w3.org/1999/xlink" viewBox="0 0 800 800">
  <!-- Generator: Adobe Illustrator 29.3.1, SVG Export Plug-In . SVG Version: 2.1.0 Build 151)  -->
  <defs>
    <style>
      .st0 {
        fill: #fff;
      }

      .st1 {
        fill: #18bffb;
      }
    </style>
  </defs>
  <rect class="st1" width="800" height="800" rx="160" ry="160"/>
  <path class="st0" d="M396.6,183.8l16.2-28c10-17.5,32.3-23.4,49.8-13.4s23.4,32.3,13.4,49.8l-156.1,270.2h112.9c36.6,0,57.1,43,41.2,72.8H143c-20.2,0-36.4-16.2-36.4-36.4s16.2-36.4,36.4-36.4h92.8l118.8-205.9-37.1-64.4c-10-17.5-4.1-39.6,13.4-49.8,17.5-10,39.6-4.1,49.8,13.4l15.9,28.1h0ZM256.2,572.7l-35,60.7c-10,17.5-32.3,23.4-49.8,13.4s-23.4-32.3-13.4-49.8l26-45c29.4-9.1,53.3-2.1,72.2,20.7h0ZM557.6,462.6h94.7c20.2,0,36.4,16.2,36.4,36.4s-16.2,36.4-36.4,36.4h-52.6l35.5,61.6c10,17.5,4.1,39.6-13.4,49.8-17.5,10-39.6,4.1-49.8-13.4-59.8-103.7-104.7-181.3-134.5-233-30.5-52.6-8.7-105.4,12.8-123.3,23.9,41,59.6,102.9,107.3,185.5h0Z"/>
</svg>