<?xml version="1.0" encoding="UTF-8"?>
<svg id="Layer_1" xmlns="http://www.w3.org/2000/svg" version="1.1" viewBox="0 0 800 800">
  <!-- Generator: Adobe Illustrator 29.3.1, SVG Export Plug-In . SVG Version: 2.1.0 Build 151)  -->
  <defs>
    <style>
      .st0 {
        fill: #e04d2b;
      }

      .st0, .st1, .st2, .st3 {
        fill-rule: evenodd;
      }

      .st1 {
        fill: #71d375;
      }

      .st2 {
        fill: #f9db46;
      }

      .st3 {
        fill: #26abd9;
      }
    </style>
  </defs>
  <path class="st3" d="M399.1,547.1c-79.3,0-143.8-64.5-143.8-143.8s64.5-143.8,143.8-143.8,143.8,64.5,143.8,143.8c0,79.3-64.5,143.8-143.8,143.8h0Z"/>
  <path class="st1" d="M459.7,572.7c-20.1,7.3-41.2,11-62.8,11-42.4,0-83.8-14.9-116.5-41.9-26.6-21.9-46.4-50.8-57.3-83.5v-.2c0,0-158.6-274.5-158.6-274.5C7.6,271.2-12.6,375.6,7.7,478.3c20.6,104.6,80.8,194.9,169.3,254.2,46.1,30.9,97.2,51.5,151.9,61.3l130.8-221.2h0Z"/>
  <path class="st0" d="M758.7,223.6C659.7,24.4,418-56.8,218.8,42.2c-51.5,25.6-96.8,61.9-133,106.4l133.9,231.9c8.7-67.4,55.3-126.9,124.4-148.6,16.7-5.2,34-8,51.4-8.3h363.2Z"/>
  <path class="st2" d="M397.5,800c100.3,0,196.4-37.6,270.3-105.9,74.4-68.7,119.5-162.1,127.2-263.1,4.4-57.8-4.2-117.1-24.8-171.5h-261.9c44.1,34.9,69.9,88.2,69.7,144.7-.2,40.7-14.1,80.6-39.4,112.7l-166.9,282.3c8.6.6,17.3.8,25.8.8h0Z"/>
</svg>